<svg xmlns="http://www.w3.org/2000/svg" xmlns:xlink="http://www.w3.org/1999/xlink" width="500" zoomAndPan="magnify" viewBox="0 0 375 374.999991" height="500" preserveAspectRatio="xMidYMid meet" version="1.0"><defs><g/><clipPath id="a65e4b7a95"><path d="M 8 156 L 93 156 L 93 236 L 8 236 Z M 8 156 " clip-rule="nonzero"/></clipPath><clipPath id="2729457f4d"><path d="M 24.550781 89.234375 L 146.328125 129.464844 L 106.804688 249.105469 L -14.972656 208.875 Z M 24.550781 89.234375 " clip-rule="nonzero"/></clipPath><clipPath id="d7d31ad76f"><path d="M 24.550781 89.234375 L 146.328125 129.464844 L 106.804688 249.105469 L -14.972656 208.875 Z M 24.550781 89.234375 " clip-rule="nonzero"/></clipPath><clipPath id="50b15ba6e1"><path d="M 7 120 L 40 120 L 40 155 L 7 155 Z M 7 120 " clip-rule="nonzero"/></clipPath><clipPath id="d30fb1cb61"><path d="M 24.550781 89.234375 L 146.328125 129.464844 L 106.804688 249.105469 L -14.972656 208.875 Z M 24.550781 89.234375 " clip-rule="nonzero"/></clipPath><clipPath id="bd2cb24c2e"><path d="M 24.550781 89.234375 L 146.328125 129.464844 L 106.804688 249.105469 L -14.972656 208.875 Z M 24.550781 89.234375 " clip-rule="nonzero"/></clipPath><clipPath id="f3695012e3"><path d="M 101 151 L 134 151 L 134 187 L 101 187 Z M 101 151 " clip-rule="nonzero"/></clipPath><clipPath id="5a1196c380"><path d="M 24.550781 89.234375 L 146.328125 129.464844 L 106.804688 249.105469 L -14.972656 208.875 Z M 24.550781 89.234375 " clip-rule="nonzero"/></clipPath><clipPath id="cd3857658f"><path d="M 24.550781 89.234375 L 146.328125 129.464844 L 106.804688 249.105469 L -14.972656 208.875 Z M 24.550781 89.234375 " clip-rule="nonzero"/></clipPath><clipPath id="818450a8bb"><path d="M 45 103 L 77 103 L 77 142 L 45 142 Z M 45 103 " clip-rule="nonzero"/></clipPath><clipPath id="e7ef4fe7bb"><path d="M 24.550781 89.234375 L 146.328125 129.464844 L 106.804688 249.105469 L -14.972656 208.875 Z M 24.550781 89.234375 " clip-rule="nonzero"/></clipPath><clipPath id="b58986982d"><path d="M 24.550781 89.234375 L 146.328125 129.464844 L 106.804688 249.105469 L -14.972656 208.875 Z M 24.550781 89.234375 " clip-rule="nonzero"/></clipPath><clipPath id="75b9b8af5a"><path d="M 79 115 L 112 115 L 112 154 L 79 154 Z M 79 115 " clip-rule="nonzero"/></clipPath><clipPath id="0a78feed86"><path d="M 24.550781 89.234375 L 146.328125 129.464844 L 106.804688 249.105469 L -14.972656 208.875 Z M 24.550781 89.234375 " clip-rule="nonzero"/></clipPath><clipPath id="7b5d533c80"><path d="M 24.550781 89.234375 L 146.328125 129.464844 L 106.804688 249.105469 L -14.972656 208.875 Z M 24.550781 89.234375 " clip-rule="nonzero"/></clipPath></defs><g clip-path="url(#a65e4b7a95)"><g clip-path="url(#2729457f4d)"><g clip-path="url(#d7d31ad76f)"><path fill="#5271ff" d="M 78.835938 166.628906 C 78.695312 166.425781 78.503906 166.304688 78.261719 166.261719 C 78.019531 166.21875 77.796875 166.265625 77.59375 166.40625 C 77.390625 166.546875 77.269531 166.738281 77.226562 166.980469 C 77.179688 167.226562 77.230469 167.449219 77.371094 167.648438 C 80.875 172.632812 83.730469 177.964844 85.9375 183.644531 C 88.144531 189.324219 89.640625 195.183594 90.421875 201.226562 C 91.855469 212.574219 90.226562 222.398438 85.960938 228.191406 C 82.039062 233.503906 76.113281 235.039062 68.820312 232.628906 C 60.589844 229.910156 53.660156 224.871094 49.3125 218.4375 L 48.976562 217.929688 C 50.699219 216.921875 52.308594 215.765625 53.8125 214.453125 C 58.265625 210.53125 60.449219 206.171875 59.65625 202.789062 C 59.265625 201.128906 57.960938 198.929688 53.988281 197.871094 C 48.867188 196.507812 45.023438 198.335938 43.714844 202.773438 C 42.53125 206.730469 43.601562 212.121094 46.503906 217.273438 C 39.585938 220.84375 30.554688 222.417969 21.835938 219.164062 C 15.769531 216.902344 12.15625 213.308594 11.105469 208.472656 C 8.652344 197.234375 20.3125 180.609375 32.070312 168.808594 C 38.59375 162.246094 46.203125 158.730469 54.6875 158.363281 C 61.03125 158.085938 65.507812 159.777344 65.5625 159.796875 C 65.792969 159.886719 66.019531 159.882812 66.246094 159.78125 C 66.472656 159.683594 66.628906 159.515625 66.71875 159.285156 C 66.808594 159.054688 66.800781 158.828125 66.703125 158.601562 C 66.601562 158.375 66.4375 158.21875 66.207031 158.128906 C 66.011719 158.066406 61.390625 156.296875 54.679688 156.578125 C 48.507812 156.828125 39.351562 158.9375 30.785156 167.546875 C 24.925781 173.441406 6.0625 193.832031 9.347656 208.855469 C 10.554688 214.3125 14.527344 218.335938 21.195312 220.828125 C 21.558594 220.945312 21.90625 221.085938 22.265625 221.203125 C 31.191406 224.152344 40.359375 222.453125 47.410156 218.785156 C 47.546875 219 47.6875 219.214844 47.832031 219.425781 C 52.394531 226.203125 59.652344 231.472656 68.257812 234.316406 C 78.488281 237.695312 84.3125 233.421875 87.394531 229.242188 C 91.933594 223.089844 93.683594 212.792969 92.191406 200.996094 C 91.394531 194.8125 89.863281 188.8125 87.605469 183 C 85.347656 177.1875 82.421875 171.730469 78.835938 166.628906 Z M 48.046875 216.414062 C 46.90625 214.429688 46.058594 212.328125 45.5 210.105469 C 44.875 207.527344 44.84375 205.171875 45.398438 203.300781 C 46.441406 199.808594 49.324219 198.5 53.515625 199.617188 C 53.746094 199.675781 53.96875 199.742188 54.175781 199.8125 C 56.285156 200.507812 57.535156 201.652344 57.90625 203.21875 C 58.527344 205.898438 56.515625 209.707031 52.617188 213.136719 C 51.199219 214.375 49.675781 215.464844 48.046875 216.414062 Z M 48.046875 216.414062 " fill-opacity="1" fill-rule="nonzero"/></g></g></g><g clip-path="url(#50b15ba6e1)"><g clip-path="url(#d30fb1cb61)"><g clip-path="url(#bd2cb24c2e)"><path fill="#5271ff" d="M 32.105469 152.28125 C 34.996094 150.453125 37.105469 147.574219 38.375 143.726562 C 40.105469 138.492188 38.800781 130.640625 35.34375 125.460938 C 33.175781 122.21875 30.460938 120.386719 27.484375 120.164062 C 18.84375 119.527344 13.804688 122.027344 8.53125 137.984375 C 7.050781 142.464844 7.34375 146.140625 9.433594 148.925781 C 11 151.015625 13.339844 152.289062 15.699219 153.066406 C 18.375 153.90625 21.113281 154.308594 23.914062 154.277344 C 25.351562 154.394531 26.769531 154.285156 28.171875 153.941406 C 29.574219 153.601562 30.886719 153.046875 32.105469 152.28125 Z M 24.027344 152.484375 C 23.996094 152.472656 23.960938 152.464844 23.921875 152.484375 C 23.824219 152.484375 14.515625 152.730469 10.867188 147.851562 C 9.15625 145.566406 8.941406 142.4375 10.226562 138.546875 C 15.585938 122.320312 20.488281 121.441406 27.351562 121.945312 C 27.878906 121.988281 28.394531 122.09375 28.898438 122.257812 C 31.140625 123 32.796875 124.867188 33.855469 126.449219 C 37.039062 131.214844 38.253906 138.402344 36.679688 143.164062 C 33.582031 152.542969 26.214844 152.65625 24.027344 152.484375 Z M 24.027344 152.484375 " fill-opacity="1" fill-rule="nonzero"/></g></g></g><g clip-path="url(#f3695012e3)"><g clip-path="url(#5a1196c380)"><g clip-path="url(#cd3857658f)"><path fill="#5271ff" d="M 125.679688 152.605469 C 123.15625 151.019531 119.886719 150.863281 116.21875 152.175781 C 110.355469 154.277344 104.628906 159.804688 102.902344 165.039062 C 101.628906 168.890625 101.609375 172.460938 102.839844 175.648438 C 103.363281 176.988281 104.089844 178.214844 105.011719 179.320312 C 105.933594 180.425781 107.003906 181.359375 108.226562 182.117188 C 110.460938 183.8125 112.902344 185.121094 115.550781 186.042969 C 117.90625 186.820312 120.550781 187.195312 123.050781 186.445312 C 126.390625 185.457031 128.8125 182.679688 130.292969 178.199219 C 135.5625 162.25 133.003906 157.238281 125.679688 152.605469 Z M 122.539062 184.742188 C 116.695312 186.488281 109.367188 180.746094 109.292969 180.6875 L 109.207031 180.625 C 107.332031 179.464844 101.5 174.980469 104.597656 165.601562 C 106.167969 160.851562 111.425781 155.789062 116.820312 153.859375 C 118.613281 153.214844 121.058594 152.703125 123.300781 153.445312 C 123.800781 153.609375 124.277344 153.832031 124.726562 154.113281 C 130.542969 157.796875 133.953125 161.421875 128.59375 177.648438 C 127.308594 181.539062 125.269531 183.925781 122.539062 184.742188 Z M 122.539062 184.742188 " fill-opacity="1" fill-rule="nonzero"/></g></g></g><g clip-path="url(#818450a8bb)"><g clip-path="url(#e7ef4fe7bb)"><g clip-path="url(#b58986982d)"><path fill="#5271ff" d="M 47.035156 135.792969 C 48.605469 137.882812 50.945312 139.15625 53.304688 139.933594 C 55.976562 140.769531 58.71875 141.171875 61.519531 141.144531 C 62.953125 141.261719 64.371094 141.148438 65.773438 140.808594 C 67.171875 140.46875 68.480469 139.917969 69.703125 139.152344 C 72.589844 137.328125 74.699219 134.445312 75.972656 130.597656 C 78.007812 124.4375 76.410156 113.664062 72.625 107.996094 C 70.835938 105.316406 68.617188 103.796875 66.210938 103.617188 C 57.269531 102.953125 51.265625 109.300781 46.128906 124.851562 C 44.648438 129.332031 44.953125 133.011719 47.035156 135.792969 Z M 66.078125 105.398438 C 66.476562 105.425781 66.867188 105.507812 67.25 105.636719 C 68.660156 106.101562 69.964844 107.222656 71.140625 108.980469 C 74.941406 114.675781 75.949219 124.972656 74.277344 130.035156 C 71.179688 139.414062 63.808594 139.539062 61.621094 139.355469 L 61.515625 139.351562 C 61.421875 139.355469 52.109375 139.605469 48.460938 134.722656 C 46.753906 132.4375 46.539062 129.304688 47.824219 125.417969 C 51.230469 115.097656 56.0625 104.652344 66.078125 105.398438 Z M 66.078125 105.398438 " fill-opacity="1" fill-rule="nonzero"/></g></g></g><g clip-path="url(#75b9b8af5a)"><g clip-path="url(#0a78feed86)"><g clip-path="url(#7b5d533c80)"><path fill="#5271ff" d="M 85.945312 149.203125 C 88.175781 150.898438 90.617188 152.207031 93.265625 153.128906 C 95.621094 153.90625 98.269531 154.28125 100.765625 153.535156 C 104.101562 152.546875 106.523438 149.765625 108.003906 145.285156 C 113.140625 129.734375 112.105469 121.054688 104.523438 116.265625 C 102.484375 114.976562 99.800781 114.867188 96.765625 115.960938 C 90.359375 118.261719 82.644531 125.972656 80.609375 132.125 C 77.839844 140.535156 81.539062 146.453125 85.945312 149.203125 Z M 97.375 117.644531 C 99.367188 116.933594 101.082031 116.8125 102.492188 117.277344 C 102.875 117.402344 103.234375 117.574219 103.574219 117.789062 C 108.335938 120.800781 112.386719 126.34375 106.3125 144.738281 C 105.027344 148.625 102.988281 151.015625 100.253906 151.832031 C 94.410156 153.574219 87.085938 147.832031 87.011719 147.773438 L 86.925781 147.714844 C 85.050781 146.558594 79.214844 142.066406 82.3125 132.691406 C 83.984375 127.625 90.929688 119.953125 97.375 117.644531 Z M 97.375 117.644531 " fill-opacity="1" fill-rule="nonzero"/></g></g></g><g fill="#ffffff" fill-opacity="1"><g transform="translate(141.075179, 209.526808)"><g><path d="M 20.1875 -61.921875 C 23.957031 -61.691406 27.445312 -60.644531 30.65625 -58.78125 C 33.863281 -56.925781 36.394531 -54.132812 38.25 -50.40625 C 40.101562 -46.675781 40.863281 -42.035156 40.53125 -36.484375 C 40.257812 -32.054688 39.195312 -28.25 37.34375 -25.0625 C 35.488281 -21.882812 33.101562 -19.5 30.1875 -17.90625 C 27.28125 -16.3125 24.117188 -15.617188 20.703125 -15.828125 C 19.640625 -15.890625 18.519531 -16.046875 17.34375 -16.296875 C 16.75 -6.492188 16.367188 -1.15625 16.203125 -0.28125 C 16.035156 0.375 15.859375 0.769531 15.671875 0.90625 C 15.484375 1.039062 15.1875 1.09375 14.78125 1.0625 L 12.5 0.84375 C 12.019531 0.757812 11.335938 0.6875 10.453125 0.625 L 7.34375 0.53125 C 5.394531 0.414062 4.445312 -0.113281 4.5 -1.0625 L 4.9375 -6.734375 C 5.039062 -7.492188 5.125 -8.40625 5.1875 -9.46875 L 5.734375 -18.59375 L 6.140625 -23.640625 L 6.5 -31.15625 L 8.296875 -60.9375 C 8.304688 -61.175781 8.796875 -61.382812 9.765625 -61.5625 C 11.078125 -61.78125 12.390625 -61.9375 13.703125 -62.03125 C 15.015625 -62.132812 17.175781 -62.097656 20.1875 -61.921875 Z M 20.96875 -27.546875 C 23.257812 -27.398438 25.09375 -27.921875 26.46875 -29.109375 C 27.851562 -30.304688 28.640625 -32.472656 28.828125 -35.609375 C 29.078125 -39.679688 28.492188 -42.78125 27.078125 -44.90625 C 25.660156 -47.03125 23.445312 -48.179688 20.4375 -48.359375 C 19.96875 -48.390625 19.550781 -48.390625 19.1875 -48.359375 L 19.15625 -47.828125 L 17.953125 -27.984375 C 19.015625 -27.742188 20.019531 -27.597656 20.96875 -27.546875 Z M 20.96875 -27.546875 "/></g></g></g><g fill="#ffffff" fill-opacity="1"><g transform="translate(183.450543, 212.06917)"><g><path d="M 3.953125 -20.90625 C 4.179688 -28.007812 6.5 -33.828125 10.90625 -38.359375 C 15 -42.609375 20.0625 -44.640625 26.09375 -44.453125 C 30.238281 -44.316406 33.375 -43.238281 35.5 -41.21875 C 37.625 -39.207031 38.628906 -36.304688 38.515625 -32.515625 C 38.390625 -28.617188 37.1875 -25.296875 34.90625 -22.546875 C 32.632812 -19.804688 29.800781 -17.707031 26.40625 -16.25 C 23.007812 -14.789062 19.53125 -13.96875 15.96875 -13.78125 C 16.570312 -12.46875 17.46875 -11.46875 18.65625 -10.78125 C 19.851562 -10.09375 21.222656 -9.722656 22.765625 -9.671875 C 24.484375 -9.617188 25.941406 -9.882812 27.140625 -10.46875 C 28.347656 -11.050781 29.378906 -11.695312 30.234375 -12.40625 C 31.085938 -13.125 31.570312 -13.476562 31.6875 -13.46875 C 32.164062 -13.457031 32.6875 -13.054688 33.25 -12.265625 C 34.28125 -11.109375 35.070312 -9.898438 35.625 -8.640625 C 35.726562 -8.398438 35.988281 -7.882812 36.40625 -7.09375 C 36.820312 -6.3125 37.023438 -5.628906 37.015625 -5.046875 C 36.992188 -4.566406 36.816406 -4.125 36.484375 -3.71875 C 36.148438 -3.320312 35.644531 -2.867188 34.96875 -2.359375 C 33.082031 -0.742188 31.09375 0.335938 29 0.890625 C 26.914062 1.441406 24.363281 1.671875 21.34375 1.578125 C 17.789062 1.460938 14.671875 0.429688 11.984375 -1.515625 C 9.304688 -3.472656 7.265625 -6.144531 5.859375 -9.53125 C 4.453125 -12.925781 3.816406 -16.71875 3.953125 -20.90625 Z M 15.265625 -21.609375 C 17.847656 -21.648438 20.054688 -22.023438 21.890625 -22.734375 C 23.722656 -23.441406 25.082031 -24.285156 25.96875 -25.265625 C 26.863281 -26.242188 27.328125 -27.238281 27.359375 -28.25 C 27.421875 -30.195312 26.296875 -31.207031 23.984375 -31.28125 C 22.859375 -31.320312 21.691406 -30.914062 20.484375 -30.0625 C 19.273438 -29.21875 18.191406 -28.050781 17.234375 -26.5625 C 16.273438 -25.082031 15.617188 -23.429688 15.265625 -21.609375 Z M 15.265625 -21.609375 "/></g></g></g><g fill="#ffffff" fill-opacity="1"><g transform="translate(225.107492, 213.355203)"><g><path d="M 33.515625 -10.75 C 33.628906 -10.332031 33.753906 -9.585938 33.890625 -8.515625 C 34.035156 -7.453125 34.109375 -6.566406 34.109375 -5.859375 C 34.097656 -4.441406 33.382812 -3.226562 31.96875 -2.21875 C 31.007812 -1.519531 29.820312 -0.910156 28.40625 -0.390625 C 27.28125 0.0234375 26.179688 0.363281 25.109375 0.625 C 24.046875 0.882812 22.773438 1.007812 21.296875 1 C 19.941406 0.988281 18.40625 0.628906 16.6875 -0.078125 C 14.675781 -0.921875 13.113281 -2.085938 12 -3.578125 C 10.769531 -5.359375 9.863281 -7.316406 9.28125 -9.453125 C 8.9375 -10.691406 8.601562 -12.347656 8.28125 -14.421875 C 7.96875 -16.492188 7.816406 -18.269531 7.828125 -19.75 C 7.835938 -21.757812 7.8125 -23.296875 7.75 -24.359375 C 7.707031 -25.367188 7.703125 -26.359375 7.734375 -27.328125 C 7.765625 -28.304688 7.78125 -29.148438 7.78125 -29.859375 L 7.796875 -32.609375 L 4.96875 -32.625 C 4.132812 -32.632812 3.722656 -33.410156 3.734375 -34.953125 L 3.75 -37.96875 L 3.765625 -43.03125 C 3.773438 -43.625 3.898438 -43.976562 4.140625 -44.09375 C 4.378906 -44.207031 4.878906 -44.289062 5.640625 -44.34375 L 7.78125 -44.328125 C 7.78125 -44.796875 7.796875 -45.429688 7.828125 -46.234375 C 7.859375 -47.035156 7.878906 -48.296875 7.890625 -50.015625 L 7.90625 -52.84375 C 7.90625 -53.195312 7.890625 -53.566406 7.859375 -53.953125 C 7.835938 -54.335938 7.851562 -54.738281 7.90625 -55.15625 C 7.976562 -55.863281 8.472656 -56.363281 9.390625 -56.65625 C 10.304688 -56.957031 11.390625 -57.101562 12.640625 -57.09375 C 14.941406 -57.082031 16.671875 -56.984375 17.828125 -56.796875 C 18.984375 -56.617188 19.554688 -56.054688 19.546875 -55.109375 L 19.4375 -51.828125 C 19.425781 -50.222656 19.460938 -49.140625 19.546875 -48.578125 C 19.640625 -48.023438 19.6875 -47.628906 19.6875 -47.390625 L 19.578125 -44.28125 L 20.640625 -44.265625 C 21.410156 -44.203125 22.863281 -44.164062 25 -44.15625 L 28.109375 -44.328125 L 30.40625 -44.390625 C 31 -44.390625 31.457031 -44.238281 31.78125 -43.9375 C 32.101562 -43.644531 32.257812 -43.050781 32.25 -42.15625 C 32.25 -41.75 32.1875 -41.128906 32.0625 -40.296875 L 31.796875 -38.09375 C 31.722656 -36.789062 31.679688 -35.429688 31.671875 -34.015625 C 31.671875 -33.421875 31.300781 -33.019531 30.5625 -32.8125 C 29.820312 -32.601562 28.625 -32.503906 26.96875 -32.515625 L 22.71875 -32.640625 L 19.34375 -32.65625 L 19.109375 -21.828125 C 19.109375 -20.410156 19.191406 -18.722656 19.359375 -16.765625 C 19.460938 -15.285156 19.941406 -14.082031 20.796875 -13.15625 C 21.648438 -12.238281 22.816406 -11.773438 24.296875 -11.765625 C 25.421875 -11.753906 26.484375 -11.96875 27.484375 -12.40625 C 28.492188 -12.84375 29.328125 -13.328125 29.984375 -13.859375 C 30.285156 -14.160156 30.65625 -14.5 31.09375 -14.875 C 31.539062 -15.257812 31.851562 -15.453125 32.03125 -15.453125 C 32.320312 -15.453125 32.5 -15.15625 32.5625 -14.5625 C 32.726562 -13.613281 33.046875 -12.34375 33.515625 -10.75 Z M 33.515625 -10.75 "/></g></g></g><g fill="#ffffff" fill-opacity="1"><g transform="translate(262.45362, 213.693803)"><g><path d="M 51.640625 -14.09375 C 51.816406 -7.46875 51.863281 -3.648438 51.78125 -2.640625 C 51.6875 -1.984375 51.550781 -1.578125 51.375 -1.421875 C 51.195312 -1.273438 50.898438 -1.195312 50.484375 -1.1875 L 48.171875 -1.203125 C 47.703125 -1.253906 47.023438 -1.269531 46.140625 -1.25 L 43.03125 -1.0625 C 41.070312 -1.007812 40.082031 -1.457031 40.0625 -2.40625 L 40 -8.09375 C 40.039062 -8.863281 40.046875 -9.78125 40.015625 -10.84375 L 39.765625 -19.984375 C 39.753906 -20.453125 39.742188 -21.351562 39.734375 -22.6875 C 39.722656 -24.019531 39.664062 -26.609375 39.5625 -30.453125 L 39.578125 -33.734375 L 36.390625 -26.8125 C 34.929688 -23.707031 33.835938 -21.429688 33.109375 -19.984375 L 29.421875 -12.0625 C 29.191406 -11.707031 28.722656 -11.519531 28.015625 -11.5 C 26.710938 -11.457031 26 -11.613281 25.875 -11.96875 L 21.828125 -20.046875 C 20.460938 -22.535156 19.25 -24.925781 18.1875 -27.21875 L 15.078125 -33.609375 L 15.28125 -29.703125 L 15.828125 -18.8125 C 16.109375 -8.394531 16.207031 -2.6875 16.125 -1.6875 C 16.019531 -1.03125 15.878906 -0.625 15.703125 -0.46875 C 15.523438 -0.320312 15.234375 -0.242188 14.828125 -0.234375 L 12.515625 -0.25 C 12.035156 -0.289062 11.351562 -0.300781 10.46875 -0.28125 L 7.359375 -0.109375 C 5.410156 -0.0546875 4.425781 -0.503906 4.40625 -1.453125 L 4.34375 -7.140625 C 4.375 -7.910156 4.375 -8.828125 4.34375 -9.890625 L 4.09375 -19.03125 L 4.0625 -24.078125 L 3.765625 -31.609375 L 2.96875 -61.171875 C 2.957031 -61.523438 3.421875 -61.800781 4.359375 -62 C 5.304688 -62.207031 7.410156 -62.351562 10.671875 -62.4375 C 11.492188 -62.457031 12.128906 -62.296875 12.578125 -61.953125 C 13.035156 -61.617188 13.425781 -61.007812 13.75 -60.125 C 15.957031 -54.800781 18.644531 -48.757812 21.8125 -42 C 24.976562 -35.25 26.769531 -31.878906 27.1875 -31.890625 C 27.539062 -31.898438 29.125 -35.257812 31.9375 -41.96875 C 34.75 -48.675781 37.148438 -54.660156 39.140625 -59.921875 C 39.628906 -61.242188 40.085938 -62.128906 40.515625 -62.578125 C 40.953125 -63.035156 41.585938 -63.273438 42.421875 -63.296875 C 46.203125 -63.398438 48.484375 -63.34375 49.265625 -63.125 C 49.859375 -62.957031 50.171875 -62.222656 50.203125 -60.921875 L 50.328125 -56.40625 L 50.59375 -50.28125 L 50.65625 -37.671875 Z M 51.640625 -14.09375 "/></g></g></g><g fill="#ffffff" fill-opacity="1"><g transform="translate(320.061199, 211.989907)"><g><path d="M 2 -21.203125 C 1.570312 -28.285156 3.34375 -34.28125 7.3125 -39.1875 C 11.007812 -43.820312 15.867188 -46.320312 21.890625 -46.6875 C 26.023438 -46.9375 29.242188 -46.148438 31.546875 -44.328125 C 33.847656 -42.503906 35.113281 -39.703125 35.34375 -35.921875 C 35.582031 -32.035156 34.691406 -28.625 32.671875 -25.6875 C 30.660156 -22.75 28.035156 -20.394531 24.796875 -18.625 C 21.554688 -16.851562 18.171875 -15.707031 14.640625 -15.1875 C 15.359375 -13.945312 16.34375 -13.035156 17.59375 -12.453125 C 18.851562 -11.878906 20.25 -11.640625 21.78125 -11.734375 C 23.5 -11.835938 24.929688 -12.234375 26.078125 -12.921875 C 27.222656 -13.617188 28.179688 -14.359375 28.953125 -15.140625 C 29.734375 -15.921875 30.179688 -16.316406 30.296875 -16.328125 C 30.773438 -16.359375 31.332031 -16.003906 31.96875 -15.265625 C 33.101562 -14.222656 34.003906 -13.097656 34.671875 -11.890625 C 34.804688 -11.660156 35.113281 -11.171875 35.59375 -10.421875 C 36.082031 -9.679688 36.347656 -9.019531 36.390625 -8.4375 C 36.421875 -7.957031 36.285156 -7.5 35.984375 -7.0625 C 35.679688 -6.632812 35.222656 -6.140625 34.609375 -5.578125 C 32.867188 -3.804688 30.984375 -2.546875 28.953125 -1.796875 C 26.929688 -1.046875 24.410156 -0.582031 21.390625 -0.40625 C 17.847656 -0.1875 14.648438 -0.921875 11.796875 -2.609375 C 8.941406 -4.304688 6.660156 -6.78125 4.953125 -10.03125 C 3.242188 -13.28125 2.257812 -17.003906 2 -21.203125 Z M 13.1875 -22.921875 C 15.78125 -23.210938 17.953125 -23.796875 19.703125 -24.671875 C 21.460938 -25.546875 22.738281 -26.507812 23.53125 -27.5625 C 24.332031 -28.625 24.703125 -29.660156 24.640625 -30.671875 C 24.523438 -32.609375 23.3125 -33.503906 21 -33.359375 C 19.875 -33.296875 18.75 -32.785156 17.625 -31.828125 C 16.5 -30.878906 15.523438 -29.617188 14.703125 -28.046875 C 13.878906 -26.484375 13.375 -24.773438 13.1875 -22.921875 Z M 13.1875 -22.921875 "/></g></g></g></svg>